<svg width="19" height="19" viewBox="0 0 19 19" fill="none" xmlns="http://www.w3.org/2000/svg">
<path d="M9.5 0.125C6.48828 0.125 4.03125 2.58203 4.03125 5.59375C4.03125 7.45234 4.97656 9.09687 6.39922 10.0859C3.19219 11.3375 0.90625 14.4625 0.90625 18.0938H2.46875C2.46875 14.6578 4.96172 11.7859 8.23047 11.1844L8.71875 12.625H10.2812L10.7695 11.1844C14.0383 11.7859 16.5312 14.6578 16.5312 18.0938H18.0938C18.0938 14.4625 15.8078 11.3375 12.6008 10.0859C14.0227 9.09687 14.9688 7.45234 14.9688 5.59375C14.9688 2.58203 12.5117 0.125 9.5 0.125ZM9.5 1.6875C11.6664 1.6875 13.4062 3.42734 13.4062 5.59375C13.4062 7.76016 11.6664 9.5 9.5 9.5C7.33359 9.5 5.59375 7.76016 5.59375 5.59375C5.59375 3.42734 7.33359 1.6875 9.5 1.6875ZM8.71875 13.4062L7.9375 18.0938H11.0625L10.2812 13.4062H8.71875Z" fill="#FF5000"/>
</svg>
