<svg width="25" height="25" viewBox="0 0 25 25" fill="none" xmlns="http://www.w3.org/2000/svg">
<path d="M5.0748 7.31H8.4148C8.96033 7.31 9.36113 7.3434 9.6172 7.4102C9.8844 7.477 10.1182 7.59947 10.3186 7.7776C10.686 8.1116 10.9532 8.63487 11.1202 9.3474C11.2872 10.0599 11.3707 11.3291 11.3707 13.155C11.3707 14.9809 11.2872 16.2501 11.1202 16.9626C10.9532 17.6751 10.686 18.1984 10.3186 18.5324C10.1182 18.7105 9.8844 18.833 9.6172 18.8998C9.36113 18.9666 8.96033 19 8.4148 19H5.0748C4.52927 19 4.1229 18.9666 3.8557 18.8998C3.59963 18.833 3.3714 18.7105 3.171 18.5324C2.8036 18.1984 2.5364 17.6751 2.3694 16.9626C2.2024 16.2501 2.1189 14.9809 2.1189 13.155C2.1189 11.3291 2.2024 10.0599 2.3694 9.3474C2.5364 8.63487 2.8036 8.1116 3.171 7.7776C3.3714 7.59947 3.59963 7.477 3.8557 7.4102C4.1229 7.3434 4.52927 7.31 5.0748 7.31ZM4.4402 9.0969C4.16187 9.35297 4.0227 10.7057 4.0227 13.155C4.0227 15.6043 4.16187 16.957 4.4402 17.2131C4.58493 17.3356 4.86327 17.3968 5.2752 17.3968H8.2144C8.6152 17.4079 8.89353 17.3467 9.0494 17.2131C9.32773 16.957 9.4669 15.6043 9.4669 13.155C9.4669 10.7057 9.32773 9.35297 9.0494 9.0969C8.90467 8.97443 8.62633 8.9132 8.2144 8.9132H5.2752C4.86327 8.9132 4.58493 8.97443 4.4402 9.0969ZM16.5724 7.31H19.8623C20.4078 7.31 20.8086 7.3434 21.0647 7.4102C21.3319 7.477 21.5657 7.59947 21.7661 7.7776C22.1112 8.0782 22.345 8.44003 22.4675 8.8631C22.6011 9.27503 22.6734 9.982 22.6846 10.984H20.8643C20.842 9.92633 20.7195 9.2973 20.4969 9.0969C20.3521 8.97443 20.0738 8.9132 19.6619 8.9132H16.7728C16.3608 8.9132 16.0825 8.97443 15.9378 9.0969C15.6594 9.35297 15.5203 10.7057 15.5203 13.155C15.5203 15.6043 15.6594 16.957 15.9378 17.2131C16.0825 17.3356 16.3608 17.3968 16.7728 17.3968H19.6619C20.0627 17.4079 20.341 17.3467 20.4969 17.2131C20.7641 16.9682 20.8977 16.2501 20.8977 15.0588V14.4743H18.1756V12.8711H22.7848V14.3574C22.7848 15.5821 22.7013 16.5061 22.5343 17.1296C22.3673 17.7531 22.1112 18.2207 21.7661 18.5324C21.5657 18.7105 21.3319 18.833 21.0647 18.8998C20.8086 18.9666 20.4078 19 19.8623 19H16.5724C16.0268 19 15.6205 18.9666 15.3533 18.8998C15.0972 18.833 14.869 18.7105 14.6686 18.5324C14.3012 18.1984 14.034 17.6751 13.867 16.9626C13.7 16.2501 13.6165 14.9809 13.6165 13.155C13.6165 11.3291 13.7 10.0599 13.867 9.3474C14.034 8.63487 14.3012 8.1116 14.6686 7.7776C14.869 7.59947 15.0972 7.477 15.3533 7.4102C15.6205 7.3434 16.0268 7.31 16.5724 7.31Z" fill="#FF5000"/>
</svg>
